<?xml version="1.0" encoding="UTF-8"?>
<svg id="Capa_2" data-name="Capa 2" xmlns="http://www.w3.org/2000/svg" viewBox="0 0 610 610">
  <defs>
    <style>
      .cls-1 {
        fill: #fff;
      }
    </style>
  </defs>
  <g id="Capa_9" data-name="Capa 9">
    <g>
      <path class="cls-1" d="M253.81,186.67c7.7,0,14.95-3,20.4-8.45l40.19-40.19c2.54-2.54,2.54-6.66,0-9.2l-31.59-31.59c-2.54-2.54-6.66-2.54-9.2,0l-40.19,40.19c-5.45,5.45-8.45,12.69-8.45,20.4s3,14.95,8.45,20.4c5.45,5.45,12.69,8.45,20.4,8.45Z"/>
      <path class="cls-1" d="M520.67,89.33C461.11,29.78,383.06,0,305,0S148.89,29.78,89.33,89.33c-119.11,119.11-119.11,312.23,0,431.34,59.56,59.55,137.61,89.33,215.67,89.33s156.11-29.78,215.67-89.33c119.11-119.11,119.11-312.23,0-431.34ZM391.27,517.46c-27.47,11.14-56.49,16.79-86.27,16.79s-58.81-5.65-86.27-16.79c-1.85-.75-3.68-1.52-5.5-2.32l153.86-153.86v-59.78l126.67-126.67c9.46,13.68,17.4,28.35,23.7,43.89,11.14,27.47,16.79,56.49,16.79,86.27s-5.65,58.81-16.79,86.27c-11.53,28.43-28.47,53.94-50.36,75.83-21.89,21.89-47.4,38.83-75.83,50.36ZM218.73,92.54c27.47-11.14,56.49-16.79,86.27-16.79s58.81,5.65,86.27,16.79c1.71.69,3.4,1.41,5.09,2.14l-151.85,151.85v59.78l-128.51,128.51c-9.36-13.58-17.21-28.13-23.46-43.54-11.14-27.47-16.79-56.49-16.79-86.27s5.65-58.81,16.79-86.27c11.53-28.43,28.47-53.94,50.36-75.83,21.89-21.89,47.4-38.83,75.83-50.36ZM147.57,471.63l26.72-26.72c6.18,3.39,13.56,3.75,20,1.09.65-.27,1.28-.56,1.91-.89,0,0,0,0,.01,0,1.5-.79,2.93-1.76,4.27-2.9.46-.39.91-.8,1.35-1.24,1.24-1.24,2.31-2.59,3.21-4.01,4.51-7.13,4.76-16.18.73-23.52l209.67-209.67c2.46,1.35,5.1,2.22,7.81,2.61,1.1.16,2.22.24,3.33.24.37,0,.74,0,1.11-.03.79-.04,1.59-.12,2.38-.24,4.4-.66,8.63-2.59,12.13-5.79.26-.24.52-.48.78-.74,1.34-1.34,2.48-2.81,3.43-4.37.25-.41.49-.82.71-1.24.62-1.18,1.13-2.41,1.53-3.66.74-2.31,1.12-4.72,1.12-7.12,0-.37,0-.74-.03-1.11-.04-.74-.11-1.48-.21-2.22-.17-1.19-.44-2.37-.8-3.53-.45-1.47-1.06-2.9-1.81-4.28l24.72-24.72c5.07,5.35,9.85,10.91,14.34,16.66l-131.89,131.89v59.78l-153.34,153.34c-19.38-9.88-37.19-22.47-53.18-37.6ZM257.52,311.69v-59.78l151.35-151.35c19.53,9.91,37.47,22.57,53.57,37.8l-24.72,24.72c-1.03-.56-2.09-1.05-3.18-1.44-5.03-1.84-10.58-1.88-15.63-.11-2.7.94-5.25,2.4-7.51,4.37-.41.36-.82.73-1.21,1.12-2.76,2.76-4.68,6.05-5.75,9.53-.36,1.16-.63,2.34-.8,3.53-.11.74-.18,1.48-.21,2.22-.02.37-.03.74-.03,1.11,0,2.41.38,4.81,1.12,7.12.4,1.25.91,2.48,1.53,3.66.06.12.13.24.2.36l-209.67,209.67c-8.23-4.51-18.62-3.66-26.03,2.57-.52.43-1.02.89-1.51,1.37-3.4,3.4-5.52,7.58-6.37,11.97-.21,1.1-.34,2.2-.4,3.32-.09,1.85.04,3.71.4,5.54.26,1.36.66,2.7,1.16,4.01.08.2.16.4.25.6.3.71.64,1.41,1.02,2.1l-26.72,26.72c-5.16-5.46-10.04-11.12-14.6-16.99l133.75-133.75Z"/>
    </g>
  </g>
</svg>