<?xml version="1.0" encoding="UTF-8"?>
<svg xmlns="http://www.w3.org/2000/svg" xmlns:xlink="http://www.w3.org/1999/xlink" viewBox="0 0 4664.64 785">
  <defs>
    <style>
      .cls-1 {
        fill: url(#Degradado_sin_nombre_36);
      }

      .cls-2 {
        fill: #eca400;
      }

      .cls-3 {
        fill: url(#Degradado_sin_nombre_38);
      }

      .cls-3, .cls-4, .cls-5, .cls-6 {
        mix-blend-mode: lighten;
      }

      .cls-3, .cls-4, .cls-6 {
        opacity: .8;
      }

      .cls-7 {
        fill: #fff;
      }

      .cls-4 {
        fill: url(#Degradado_sin_nombre_4);
      }

      .cls-5 {
        fill: url(#Degradado_sin_nombre_42);
        opacity: .5;
      }

      .cls-8 {
        opacity: .46;
      }

      .cls-8, .cls-9 {
        mix-blend-mode: multiply;
      }

      .cls-10 {
        isolation: isolate;
      }

      .cls-6 {
        fill: url(#Degradado_sin_nombre_49);
      }

      .cls-11 {
        fill: #30383f;
      }

      .cls-12 {
        fill: #738595;
      }

      .cls-9 {
        opacity: .3;
      }
    </style>
    <linearGradient id="Degradado_sin_nombre_36" data-name="Degradado sin nombre 36" x1="77.37" y1="147.32" x2="697" y2="629.41" gradientUnits="userSpaceOnUse">
      <stop offset=".27" stop-color="#fff"/>
      <stop offset=".65" stop-color="#636363"/>
      <stop offset=".91" stop-color="#000"/>
    </linearGradient>
    <linearGradient id="Degradado_sin_nombre_42" data-name="Degradado sin nombre 42" x1="66.04" y1="204.28" x2="718.04" y2="580.72" gradientUnits="userSpaceOnUse">
      <stop offset=".08" stop-color="#fff"/>
      <stop offset=".2" stop-color="#636363"/>
      <stop offset=".29" stop-color="#000"/>
    </linearGradient>
    <radialGradient id="Degradado_sin_nombre_38" data-name="Degradado sin nombre 38" cx="462.48" cy="446.57" fx="462.48" fy="446.57" r="194.35" gradientTransform="translate(0 -893.14) scale(1 3)" gradientUnits="userSpaceOnUse">
      <stop offset=".38" stop-color="#fff"/>
      <stop offset=".63" stop-color="#939393"/>
      <stop offset=".89" stop-color="#2a2a2a"/>
      <stop offset="1" stop-color="#000"/>
    </radialGradient>
    <linearGradient id="Degradado_sin_nombre_4" data-name="Degradado sin nombre 4" x1="146.8" y1="234.35" x2="354.21" y2="354.1" gradientUnits="userSpaceOnUse">
      <stop offset=".08" stop-color="#fff"/>
      <stop offset=".4" stop-color="#636363"/>
      <stop offset=".61" stop-color="#000"/>
    </linearGradient>
    <linearGradient id="Degradado_sin_nombre_49" data-name="Degradado sin nombre 49" x1="323.2" y1="175.3" x2="352.95" y2="192.47" gradientUnits="userSpaceOnUse">
      <stop offset=".11" stop-color="#fff"/>
      <stop offset=".41" stop-color="#636363"/>
      <stop offset=".61" stop-color="#000"/>
    </linearGradient>
  </defs>
  <g class="cls-10">
    <g id="Capa_2" data-name="Capa 2">
      <g id="Final_Color">
        <circle class="cls-12" cx="392.5" cy="392.5" r="384.29"/>
        <g>
          <path class="cls-7" d="M135.97,522.99c-.77-1.13-1.12-2.38-1.04-3.75.08-1.37.58-2.56,1.51-3.58,1.02-1.02,2.2-1.66,3.53-1.94,1.34-.27,2.66-.07,3.97.61l18.34,9.58-9.58-18.34c-.63-1.31-.83-2.64-.58-3.97.25-1.34.88-2.51,1.9-3.53,1.04-.95,2.25-1.47,3.62-1.55,1.37-.08,2.62.27,3.75,1.04l24.9,16.81-4.72,4.72-21.84-14.3,10.73,20.65c.48.97.63,1.98.46,3.01-.17,1.03-.63,1.92-1.38,2.67l-.07.07c-.75.75-1.64,1.21-2.67,1.38-1.03.17-2.02,0-2.97-.49l-20.65-10.73,14.3,21.84-4.72,4.72-16.81-24.9Z"/>
          <path class="cls-7" d="M175.65,498.53c-1.45-1.45-2.54-3.09-3.26-4.93-.72-1.83-1.09-3.7-1.09-5.6,0-1.9.36-3.76,1.07-5.59.71-1.82,1.79-3.46,3.24-4.91l13.42-13.42,4.69,4.69-13.42,13.42c-.82.82-1.42,1.73-1.82,2.73-.4,1.01-.59,2.04-.59,3.11,0,1.06.2,2.1.59,3.11.4,1.01,1,1.92,1.82,2.73l2.75,2.75c.82.82,1.73,1.42,2.73,1.82,1.01.4,2.04.6,3.11.59,1.06,0,2.1-.2,3.11-.59,1.01-.4,1.92-1,2.73-1.82l8.76-8.76-4.89-4.89-8.63,8.63-4.65-4.65,13.28-13.28,14.2,14.2-13.42,13.42c-1.45,1.45-3.09,2.53-4.91,3.24-1.82.71-3.69,1.07-5.59,1.07s-3.76-.36-5.59-1.07c-1.82-.71-3.46-1.79-4.91-3.24l-2.75-2.75Z"/>
          <path class="cls-7" d="M223.41,429.71c1.15-1.15,2.46-2.02,3.92-2.6,1.46-.58,2.94-.86,4.45-.85,1.51.01,2.98.3,4.43.87,1.45.57,2.75,1.43,3.91,2.58l.92.92c1.59,1.59,2.64,3.45,3.16,5.6.52,2.15.43,4.3-.27,6.45l13.38.68-6.28,6.28-11.62-.61-7.03,7.03-4.69-4.69,8.7-8.7c.52-.52.91-1.1,1.15-1.73.25-.63.37-1.28.37-1.94,0-.66-.13-1.31-.39-1.95-.26-.65-.65-1.23-1.17-1.75l-.92-.92c-.52-.52-1.1-.91-1.73-1.15-.63-.25-1.28-.37-1.94-.37-.66,0-1.3.12-1.94.37-.63.25-1.21.63-1.73,1.15l-10.8,10.8,19.09,19.09-4.65,4.65-23.78-23.78,15.46-15.46Z"/>
          <path class="cls-7" d="M260.88,439.8l-23.78-23.78,19.6-19.6,4.65,4.65-14.95,14.95,14.47,14.47,14.95-14.95,4.65,4.65-19.6,19.6ZM265.16,407.12l4.65,4.65-11.72,11.72-4.65-4.65,11.72-11.72Z"/>
          <path class="cls-7" d="M283.13,417.55l-1.43-22.35-22.35-1.43,5.27-5.27,16.71,1.09-1.09-16.71,5.26-5.26,1.46,22.32,22.32,1.46-5.26,5.26-16.71-1.09,1.09,16.71-5.27,5.27Z"/>
        </g>
      </g>
      <g id="Final_Sombras">
        <g class="cls-8">
          <path class="cls-1" d="M670.04,114.96c-153.28-153.28-401.8-153.28-555.08,0-153.28,153.28-153.28,401.8,0,555.08,153.28,153.28,401.8,153.28,555.08,0,153.28-153.28,153.28-401.8,0-555.08ZM605.05,605.05c-117.39,117.39-307.71,117.39-425.1,0-117.39-117.39-117.39-307.71,0-425.1,117.39-117.39,307.71-117.39,425.1,0,117.39,117.39,117.39,307.71,0,425.1Z"/>
        </g>
        <g class="cls-9">
          <path d="M361.93,124.66l15.28,4.37,38.57,38.57s1.46,2.18,1.46,5.09c0,4.37-1.46,5.82-1.46,5.82l-60.05,60.05s-30.93,17.83-55.68-9.83l8.73-1.46s9.46,10.19,26.2,7.28c16.74-2.91,66.96-59.68,66.96-59.68l-37.87-41.38-2.16-8.84Z"/>
          <path d="M193.74,619.85l-13.79-14.81,40.28-40.28s21.08,10.69,32.26,0c11.18-10.69,3.8-32.41,3.8-32.41l275.84-279.48s19.31,12.48,30.82,0c11.51-12.48,1.57-32.38,1.57-32.38l40.54-40.54,12.86,13.68-31.08,31.47s7.28,21.11-10.19,38.57c-17.47,17.47-40.03,9.46-40.03,9.46l-259.83,259.83s9.46,24.02-11.65,43.67c-16.85,15.68-37.52,8.61-37.52,8.61l-33.86,34.61Z"/>
          <polyline points="150.36 570.67 320.16 400.51 320.16 321.42 523.1 120.64 545.34 131.94 342.83 334.45 342.83 413.04 166.24 589.64 150.36 570.67"/>
        </g>
      </g>
      <g id="Final_Luz">
        <g>
          <path class="cls-5" d="M392.04,80.13c42.2,0,83.1,8.25,121.57,24.52,37.19,15.73,70.6,38.26,99.31,66.97,28.71,28.71,51.24,62.12,66.97,99.31,16.27,38.47,24.52,79.37,24.52,121.57s-8.25,83.1-24.52,121.57c-15.73,37.19-38.26,70.6-66.97,99.31-28.71,28.71-62.12,51.24-99.31,66.97-38.47,16.27-79.37,24.52-121.57,24.52s-83.1-8.25-121.57-24.52c-37.19-15.73-70.6-38.26-99.31-66.97-28.71-28.71-51.24-62.12-66.97-99.31-16.27-38.47-24.52-79.37-24.52-121.57s8.25-83.1,24.52-121.57c15.73-37.19,38.26-70.6,66.97-99.31s62.12-51.24,99.31-66.97c38.47-16.27,79.37-24.52,121.57-24.52M392.04,16.13C184.18,16.13,15.67,184.64,15.67,392.5s168.51,376.37,376.37,376.37,376.37-168.51,376.37-376.37S599.91,16.13,392.04,16.13h0Z"/>
          <polygon class="cls-3" points="292.59 659.22 288.35 654.97 475.86 467.47 475.86 390.45 632.38 233.93 636.62 238.17 481.86 392.93 481.86 469.95 292.59 659.22"/>
          <path class="cls-4" d="M145.62,547.99c-29.38-46.47-44.92-100.24-44.92-155.49,0-77.82,30.3-150.98,85.33-206.01,55.03-55.03,128.19-85.33,206.01-85.33,33.39,0,66.14,5.6,97.33,16.65l-2,5.66c-30.54-10.82-62.62-16.31-95.33-16.31-157.34,0-285.34,128-285.34,285.34,0,54.11,15.21,106.77,43.99,152.28l-5.07,3.21Z"/>
          <path class="cls-6" d="M327.68,220.54c-4.26,0-9.17-1.2-13.35-5.38-7.93-7.93-3.68-19-.33-23.75l.33-.39,42.21-42.21,4.24,4.24-42.01,42.01c-.92,1.41-6.11,9.94-.2,15.85,6.62,6.62,16.49,2.19,16.9,2l2.53,5.44c-.32.15-4.78,2.18-10.33,2.18Z"/>
        </g>
      </g>
      <g id="Final_lineas">
        <g>
          <path d="M326.62,240.23c9.91,0,19.24-3.86,26.25-10.87l51.72-51.72c3.27-3.27,3.27-8.57,0-11.84l-40.66-40.66c-3.27-3.27-8.57-3.27-11.84,0l-51.72,51.72c-7.01,7.01-10.87,16.33-10.87,26.25s3.86,19.24,10.87,26.25c7.01,7.01,16.33,10.87,26.25,10.87ZM312.21,188.7l45.8-45.8,28.82,28.82-45.8,45.8c-7.95,7.95-20.87,7.95-28.82,0-3.85-3.85-5.97-8.97-5.97-14.41s2.12-10.56,5.97-14.41Z"/>
          <path d="M392.5,80.75c-79.78,0-159.57,30.44-220.44,91.31-121.75,121.75-121.75,319.14,0,440.88,60.87,60.87,140.66,91.31,220.44,91.31s159.57-30.44,220.44-91.31c121.75-121.75,121.75-319.14,0-440.88-60.87-60.87-140.66-91.31-220.44-91.31ZM535.85,236.05c0-3.5,1.36-6.79,3.84-9.26,2.47-2.47,5.76-3.84,9.26-3.84s6.79,1.36,9.26,3.84c2.47,2.47,3.84,5.76,3.84,9.26s-1.36,6.79-3.84,9.26c-2.47,2.47-5.76,3.84-9.26,3.84s-6.79-1.36-9.26-3.84c-2.47-2.47-3.84-5.76-3.84-9.26ZM563.29,209.88c-4.45-2.44-9.39-3.67-14.33-3.67-7.64,0-15.27,2.91-21.1,8.74-9.6,9.6-11.28,24.1-5.07,35.43l-269.83,269.83c-4.45-2.44-9.39-3.67-14.33-3.67-7.64,0-15.27,2.91-21.1,8.74-9.6,9.6-11.28,24.1-5.07,35.43l-34.38,34.38c-6.64-7.02-12.92-14.31-18.79-21.87l172.12-172.12v-76.93l194.77-194.77c25.13,12.76,48.23,29.04,68.94,48.64l-31.81,31.81ZM225.52,546.38c0-3.5,1.36-6.79,3.84-9.26,2.47-2.47,5.76-3.84,9.26-3.84s6.79,1.36,9.26,3.84c2.47,2.47,3.84,5.76,3.84,9.26s-1.36,6.79-3.84,9.26c-2.47,2.47-5.76,3.84-9.26,3.84s-6.79-1.36-9.26-3.84c-2.47-2.47-3.84-5.76-3.84-9.26ZM224.29,572.55c4.45,2.44,9.39,3.67,14.33,3.67,7.64,0,15.27-2.91,21.1-8.74,9.6-9.6,11.28-24.1,5.07-35.44l269.83-269.83c4.45,2.44,9.39,3.67,14.33,3.67,7.64,0,15.27-2.91,21.1-8.74,9.6-9.6,11.28-24.1,5.07-35.44l31.81-31.81c6.52,6.89,12.68,14.04,18.46,21.44l-169.73,169.73v76.93l-197.33,197.33c-24.94-12.72-47.86-28.91-68.44-48.39l34.38-34.38ZM97.49,392.5c0-38.32,7.27-75.68,21.6-111.02,14.84-36.58,36.64-69.42,64.81-97.58,28.17-28.17,61-49.97,97.58-64.81,35.35-14.33,72.7-21.6,111.02-21.6s75.68,7.27,111.02,21.6c2.2.89,4.38,1.81,6.55,2.75l-195.42,195.42v76.93l-165.37,165.37c-12.04-17.48-22.15-36.2-30.19-56.03-14.33-35.35-21.6-72.7-21.6-111.02ZM687.51,392.5c0,38.32-7.27,75.68-21.6,111.02-14.84,36.58-36.64,69.42-64.81,97.58-28.17,28.17-61,49.97-97.58,64.81-35.35,14.33-72.7,21.6-111.02,21.6s-75.68-7.27-111.02-21.6c-2.37-.96-4.73-1.96-7.07-2.98l198-198v-76.93l163.01-163.01c12.18,17.61,22.39,36.48,30.5,56.48,14.33,35.35,21.6,72.7,21.6,111.02Z"/>
          <path d="M670.04,114.96C593.4,38.32,492.95,0,392.5,0S191.6,38.32,114.96,114.96c-153.28,153.28-153.28,401.8,0,555.08,76.64,76.64,177.09,114.96,277.54,114.96s200.9-38.32,277.54-114.96c153.28-153.28,153.28-401.8,0-555.08ZM658.2,658.2c-35.87,35.87-77.69,63.65-124.3,82.54-45.02,18.26-92.6,27.51-141.41,27.51s-96.39-9.26-141.41-27.51c-46.6-18.9-88.42-46.67-124.3-82.54-35.87-35.88-63.65-77.69-82.54-124.3-18.26-45.02-27.51-92.6-27.51-141.41s9.26-96.39,27.51-141.41c18.9-46.6,46.67-88.42,82.54-124.3,35.87-35.87,77.69-63.65,124.3-82.54,45.02-18.26,92.6-27.51,141.41-27.51s96.39,9.26,141.41,27.51c46.6,18.9,88.42,46.67,124.3,82.54,35.87,35.88,63.65,77.69,82.54,124.3,18.26,45.02,27.51,92.6,27.51,141.41s-9.26,96.39-27.51,141.41c-18.9,46.6-46.67,88.42-82.54,124.3Z"/>
        </g>
      </g>
      <g id="Final_Isotipo">
        <g>
          <path class="cls-11" d="M1303.14,201.86c18.92,0,36.74,3.62,53.44,10.86,16.7,7.23,31.17,17.07,43.42,29.5,12.25,12.44,21.99,26.91,29.22,43.42,7.24,16.52,10.86,34.23,10.86,53.16v15.03c0,25.98-6.68,49.91-20.04,71.8-13.36,21.9-31.73,38.78-55.1,50.65l104.09,115.22h-102.97l-90.17-100.19h-115.22v-76.81h142.49c8.53,0,16.42-1.57,23.66-4.73,7.24-3.15,13.54-7.42,18.92-12.8,5.38-5.37,9.65-11.78,12.8-19.2,3.15-7.42,4.73-15.39,4.73-23.94v-15.03c0-8.53-1.58-16.42-4.73-23.66-3.16-7.24-7.43-13.54-12.8-18.93-5.38-5.38-11.69-9.64-18.92-12.8-7.23-3.15-15.12-4.73-23.66-4.73h-177v312.82h-76.26V201.86h253.26Z"/>
          <path class="cls-11" d="M1527.45,591.49V201.86h321.17v76.26h-244.91v237.12h244.91v76.25h-321.17ZM1830.25,358.83v76.26h-192.03v-76.26h192.03Z"/>
          <path class="cls-11" d="M2641.79,249.73c2.97-15.59,10.38-28.67,22.26-39.24,11.87-10.58,25.79-16.23,41.75-16.98,16.7,0,31.63,4.37,44.81,13.08,13.17,8.72,22.35,21.25,27.55,37.57l71.8,228.77,71.81-228.77c5.57-15.95,14.84-28.39,27.83-37.29,12.98-8.91,27.83-13.36,44.53-13.36,16.32.75,30.42,6.4,42.3,16.98,11.87,10.58,19.29,23.66,22.26,39.24l66.24,341.76h-77.37l-61.78-296.12-81.27,257.16c-4.09,11.88-11.05,21.35-20.87,28.39-9.84,7.05-20.87,10.57-33.12,10.57h-1.11c-12.25,0-23.29-3.52-33.12-10.57-9.84-7.04-16.61-16.51-20.32-28.39l-81.27-257.16-61.79,296.12h-77.37l66.24-341.76Z"/>
          <path class="cls-11" d="M3188.38,591.49V201.86h321.17v76.26h-244.91v237.12h244.91v76.25h-321.17ZM3491.18,358.83v76.26h-192.03v-76.26h192.03Z"/>
          <path class="cls-11" d="M3663.73,591.42v-312.75h141.94c12.98,0,25.32,2.5,37.01,7.51,11.69,5.01,21.79,11.88,30.34,20.6,8.53,8.72,15.31,18.84,20.32,30.33,5.01,11.5,7.51,23.94,7.51,37.29v45.09c0,13.36-2.51,25.79-7.51,37.29-5.01,11.5-11.78,21.62-20.32,30.33-8.54,8.72-18.65,15.59-30.34,20.6-11.69,5.01-24.03,7.52-37.01,7.52h-107.72v76.25h107.72c23.74,0,46.01-4.54,66.79-13.64,20.78-9.09,38.96-21.43,54.55-37.01,15.59-15.58,27.92-33.76,37.01-54.55,9.09-20.78,13.64-43.05,13.64-66.79v-45.09c0-23.74-4.55-46.1-13.64-67.07-9.1-20.96-21.43-39.24-37.01-54.82-15.58-15.59-33.77-27.92-54.55-37.02-20.79-9.09-43.05-13.64-66.79-13.64h-218.2v389.63h58.23l18.03-.07Z"/>
          <g>
            <polygon class="cls-11" points="2083.27 321.43 1978.31 201.86 1892.03 201.86 2040.08 370.1 2083.27 321.43"/>
            <polygon class="cls-11" points="2063.47 396.67 1892.03 591.49 1978.31 591.49 2106.33 445.66 2149.74 396.67 2320.63 201.86 2234.35 201.86 2106.33 347.69 2063.47 396.67"/>
            <polygon class="cls-11" points="2129.53 472.09 2234.35 591.49 2320.63 591.49 2172.97 423.15 2129.53 472.09"/>
          </g>
          <path class="cls-2" d="M4457.83,481.9l-35.28.15-30.96,30.96h148.93l38.41,78.48h85.72l-178.67-363.47c-5.2-10.76-12.9-19.2-23.1-25.32-10.21-6.12-21.25-9.19-33.12-9.19s-22.18,2.98-32.01,8.91c-9.84,5.94-17.35,14.11-22.54,24.49l-178.67,364.58h85.72l37.85-78.48h36.85l43.36-43.11,35.28-.15,32.75-33h-110.94l72.92-149.17,72.92,149.17-45.39,45.15Z"/>
          <polygon class="cls-2" points="4092.47 515.29 4050.57 557.19 4050.57 591.49 4126.83 591.49 4126.83 515.15 4092.47 515.29"/>
          <polygon class="cls-2" points="4072.16 290.62 4050.57 312.37 4050.57 522.68 4070.22 503.14 4105.5 502.99 4126.83 481.5 4126.83 271.19 4107.44 290.47 4072.16 290.62"/>
          <polygon class="cls-2" points="4085.19 278.32 4126.83 236.68 4126.83 201.86 4050.57 201.86 4050.57 278.46 4085.19 278.32"/>
        </g>
      </g>
    </g>
  </g>
</svg>