<?xml version="1.0" encoding="UTF-8"?>
<svg id="Capa_2" data-name="Capa 2" xmlns="http://www.w3.org/2000/svg" viewBox="0 0 4664.64 785">
  <defs>
    <style>
      .cls-1 {
        fill: #30383f;
      }
    </style>
  </defs>
  <g id="Final_Isotipo_N" data-name="Final_Isotipo N">
    <g>
      <path class="cls-1" d="M1303.14,201.86c18.92,0,36.74,3.62,53.44,10.86,16.7,7.23,31.17,17.07,43.42,29.5,12.25,12.44,21.99,26.91,29.22,43.42,7.24,16.52,10.86,34.23,10.86,53.16v15.03c0,25.98-6.68,49.91-20.04,71.8-13.36,21.9-31.73,38.78-55.1,50.65l104.09,115.22h-102.97l-90.17-100.19h-115.22v-76.81h142.49c8.53,0,16.42-1.57,23.66-4.73,7.24-3.15,13.54-7.42,18.92-12.8,5.38-5.37,9.65-11.78,12.8-19.2,3.15-7.42,4.73-15.39,4.73-23.94v-15.03c0-8.53-1.58-16.42-4.73-23.66-3.16-7.24-7.43-13.54-12.8-18.93-5.38-5.38-11.69-9.64-18.92-12.8-7.23-3.15-15.12-4.73-23.66-4.73h-177v312.82h-76.26V201.86h253.26Z"/>
      <path class="cls-1" d="M1527.45,591.49V201.86h321.17v76.26h-244.91v237.12h244.91v76.25h-321.17ZM1830.25,358.83v76.26h-192.03v-76.26h192.03Z"/>
      <path class="cls-1" d="M2641.79,249.73c2.97-15.59,10.38-28.67,22.26-39.24,11.87-10.58,25.79-16.23,41.75-16.98,16.7,0,31.63,4.37,44.81,13.08,13.17,8.72,22.35,21.25,27.55,37.57l71.8,228.77,71.81-228.77c5.57-15.95,14.84-28.39,27.83-37.29,12.98-8.91,27.83-13.36,44.53-13.36,16.32.75,30.42,6.4,42.3,16.98,11.87,10.58,19.29,23.66,22.26,39.24l66.24,341.76h-77.37l-61.78-296.12-81.27,257.16c-4.09,11.88-11.05,21.35-20.87,28.39-9.84,7.05-20.87,10.57-33.12,10.57h-1.11c-12.25,0-23.29-3.52-33.12-10.57-9.84-7.04-16.61-16.51-20.32-28.39l-81.27-257.16-61.79,296.12h-77.37l66.24-341.76Z"/>
      <path class="cls-1" d="M3188.38,591.49V201.86h321.17v76.26h-244.91v237.12h244.91v76.25h-321.17ZM3491.18,358.83v76.26h-192.03v-76.26h192.03Z"/>
      <path class="cls-1" d="M3663.73,591.42v-312.75h141.94c12.98,0,25.32,2.5,37.01,7.51,11.69,5.01,21.79,11.88,30.34,20.6,8.53,8.72,15.31,18.84,20.32,30.33,5.01,11.5,7.51,23.94,7.51,37.29v45.09c0,13.36-2.51,25.79-7.51,37.29-5.01,11.5-11.78,21.62-20.32,30.33-8.54,8.72-18.65,15.59-30.34,20.6-11.69,5.01-24.03,7.52-37.01,7.52h-107.72v76.25h107.72c23.74,0,46.01-4.54,66.79-13.64,20.78-9.09,38.96-21.43,54.55-37.01,15.59-15.58,27.92-33.76,37.01-54.55,9.09-20.78,13.64-43.05,13.64-66.79v-45.09c0-23.74-4.55-46.1-13.64-67.07-9.1-20.96-21.43-39.24-37.01-54.82-15.58-15.59-33.77-27.92-54.55-37.02-20.79-9.09-43.05-13.64-66.79-13.64h-218.2v389.63h58.23l18.03-.07Z"/>
      <g>
        <polygon class="cls-1" points="2083.27 321.43 1978.31 201.86 1892.03 201.86 2040.08 370.1 2083.27 321.43"/>
        <polygon class="cls-1" points="2063.47 396.67 1892.03 591.49 1978.31 591.49 2106.33 445.66 2149.74 396.67 2320.63 201.86 2234.35 201.86 2106.33 347.69 2063.47 396.67"/>
        <polygon class="cls-1" points="2129.53 472.09 2234.35 591.49 2320.63 591.49 2172.97 423.15 2129.53 472.09"/>
      </g>
      <path class="cls-1" d="M4457.83,481.9l-35.28.15-30.96,30.96h148.93l38.41,78.48h85.72l-178.67-363.47c-5.2-10.76-12.9-19.2-23.1-25.32-10.21-6.12-21.25-9.19-33.12-9.19s-22.18,2.98-32.01,8.91c-9.84,5.94-17.35,14.11-22.54,24.49l-178.67,364.58h85.72l37.85-78.48h36.85l43.36-43.11,35.28-.15,32.75-33h-110.94l72.92-149.17,72.92,149.17-45.39,45.15Z"/>
      <polygon class="cls-1" points="4092.47 515.29 4050.57 557.19 4050.57 591.49 4126.83 591.49 4126.83 515.15 4092.47 515.29"/>
      <polygon class="cls-1" points="4072.16 290.62 4050.57 312.37 4050.57 522.68 4070.22 503.14 4105.5 502.99 4126.83 481.5 4126.83 271.19 4107.44 290.47 4072.16 290.62"/>
      <polygon class="cls-1" points="4085.19 278.32 4126.83 236.68 4126.83 201.86 4050.57 201.86 4050.57 278.46 4085.19 278.32"/>
    </g>
  </g>
  <g id="Final_Isologo_N" data-name="Final_Isologo N">
    <g>
      <path class="cls-1" d="M352.87,229.36l51.72-51.72c3.27-3.27,3.27-8.57,0-11.84l-40.66-40.66c-3.27-3.27-8.57-3.27-11.84,0l-51.72,51.72c-7.01,7.01-10.87,16.33-10.87,26.25s3.86,19.24,10.87,26.25c7.01,7.01,16.33,10.87,26.25,10.87s19.24-3.86,26.25-10.87Z"/>
      <path class="cls-1" d="M670.04,114.96C593.4,38.32,492.95,0,392.5,0S191.6,38.32,114.96,114.96c-153.28,153.28-153.28,401.8,0,555.08,76.64,76.64,177.09,114.96,277.54,114.96s200.9-38.32,277.54-114.96c153.28-153.28,153.28-401.8,0-555.08ZM119.09,503.52c-14.33-35.35-21.6-72.7-21.6-111.02s7.27-75.68,21.6-111.02c14.84-36.58,36.64-69.42,64.81-97.58,28.17-28.17,61-49.97,97.58-64.81,35.35-14.33,72.7-21.6,111.02-21.6s75.68,7.27,111.02,21.6c2.2.89,4.38,1.81,6.55,2.75l-195.42,195.42v76.93l-165.37,165.37c-12.04-17.48-22.15-36.2-30.19-56.03ZM159.27,573.23l172.12-172.12v-76.93l194.77-194.77c25.13,12.76,48.23,29.04,68.94,48.64l-31.81,31.81c-4.45-2.44-9.39-3.67-14.33-3.67-7.64,0-15.27,2.91-21.1,8.74-9.6,9.6-11.28,24.1-5.07,35.43l-269.83,269.83c-4.45-2.44-9.39-3.67-14.33-3.67-7.64,0-15.27,2.91-21.1,8.74-9.6,9.6-11.28,24.1-5.07,35.43l-34.38,34.38c-6.64-7.02-12.92-14.31-18.79-21.87ZM189.9,606.94l34.38-34.38c4.45,2.44,9.39,3.67,14.33,3.67,7.64,0,15.27-2.91,21.1-8.74,9.6-9.6,11.28-24.1,5.07-35.44l269.83-269.83c4.45,2.44,9.39,3.67,14.33,3.67,7.64,0,15.27-2.91,21.1-8.74,9.6-9.6,11.28-24.1,5.07-35.44l31.81-31.81c6.52,6.89,12.68,14.04,18.46,21.44l-169.73,169.73v76.93l-197.33,197.33c-24.94-12.72-47.86-28.91-68.44-48.39ZM665.91,503.52c-14.84,36.58-36.64,69.42-64.81,97.58-28.17,28.17-61,49.97-97.58,64.81-35.35,14.33-72.7,21.6-111.02,21.6s-75.68-7.27-111.02-21.6c-2.37-.96-4.73-1.96-7.07-2.98l198-198v-76.93l163.01-163.01c12.18,17.61,22.39,36.48,30.5,56.48,14.33,35.35,21.6,72.7,21.6,111.02s-7.27,75.68-21.6,111.02Z"/>
    </g>
  </g>
</svg>