<?xml version="1.0" encoding="UTF-8"?>
<svg xmlns="http://www.w3.org/2000/svg" version="1.1" xmlns:xlink="http://www.w3.org/1999/xlink" viewBox="0 0 4664.6 785">
  <!-- Generator: Adobe Illustrator 29.0.1, SVG Export Plug-In . SVG Version: 2.1.0 Build 192)  -->
  <defs>
    <style>
      .st0 {
        fill: url(#Degradado_sin_nombre_199);
      }

      .st1 {
        fill: url(#Degradado_sin_nombre_193);
      }

      .st2 {
        fill: #eca400;
      }

      .st3 {
        fill: url(#Degradado_sin_nombre_198);
      }

      .st4 {
        fill: url(#Degradado_sin_nombre_19);
      }

      .st5 {
        fill: url(#Degradado_sin_nombre_197);
      }

      .st6 {
        fill: #fff;
      }

      .st7 {
        fill: url(#Degradado_sin_nombre_192);
      }

      .st8 {
        fill: url(#Degradado_sin_nombre_194);
      }

      .st9 {
        fill: url(#Degradado_sin_nombre_195);
      }

      .st10 {
        isolation: isolate;
      }

      .st11 {
        fill: url(#Degradado_sin_nombre_196);
      }

      .st12 {
        fill: url(#Degradado_sin_nombre_1911);
      }

      .st13 {
        fill: url(#Degradado_sin_nombre_191);
      }

      .st14 {
        mix-blend-mode: multiply;
        opacity: .6;
      }

      .st15 {
        fill: url(#Degradado_sin_nombre_1910);
      }
    </style>
    <linearGradient id="Degradado_sin_nombre_19" data-name="Degradado sin nombre 19" x1="1.9" y1="193" x2="522" y2="713.1" gradientUnits="userSpaceOnUse">
      <stop offset=".4" stop-color="#000"/>
      <stop offset="1" stop-color="#000" stop-opacity="0"/>
    </linearGradient>
    <linearGradient id="Degradado_sin_nombre_191" data-name="Degradado sin nombre 19" x1="619.9" y1="189.3" x2="1077" y2="646.5" xlink:href="#Degradado_sin_nombre_19"/>
    <linearGradient id="Degradado_sin_nombre_192" data-name="Degradado sin nombre 19" x1="2072.6" y1="209.4" x2="2614.1" y2="750.9" xlink:href="#Degradado_sin_nombre_19"/>
    <linearGradient id="Degradado_sin_nombre_193" data-name="Degradado sin nombre 19" x1="2756.2" y1="189.3" x2="3213.3" y2="646.5" xlink:href="#Degradado_sin_nombre_19"/>
    <linearGradient id="Degradado_sin_nombre_194" data-name="Degradado sin nombre 19" x1="3259.2" y1="199.8" x2="3695.6" y2="636.3" xlink:href="#Degradado_sin_nombre_19"/>
    <linearGradient id="Degradado_sin_nombre_195" data-name="Degradado sin nombre 19" x1="1132.1" y1="146.1" x2="1335.4" y2="349.4" xlink:href="#Degradado_sin_nombre_19"/>
    <linearGradient id="Degradado_sin_nombre_196" data-name="Degradado sin nombre 19" x1="1343.5" y1="374.9" x2="1429.4" y2="460.8" xlink:href="#Degradado_sin_nombre_19"/>
    <linearGradient id="Degradado_sin_nombre_197" data-name="Degradado sin nombre 19" x1="1437.8" y1="486.3" x2="1641" y2="689.5" xlink:href="#Degradado_sin_nombre_19"/>
    <linearGradient id="Degradado_sin_nombre_198" data-name="Degradado sin nombre 19" x1="4164.1" y1="334.5" x2="4587.5" y2="758" xlink:href="#Degradado_sin_nombre_19"/>
    <linearGradient id="Degradado_sin_nombre_199" data-name="Degradado sin nombre 19" x1="3914.1" y1="597.3" x2="3985.2" y2="668.4" xlink:href="#Degradado_sin_nombre_19"/>
    <linearGradient id="Degradado_sin_nombre_1910" data-name="Degradado sin nombre 19" x1="3857.2" y1="339.2" x2="4015.2" y2="497.2" xlink:href="#Degradado_sin_nombre_19"/>
    <linearGradient id="Degradado_sin_nombre_1911" data-name="Degradado sin nombre 19" x1="3887.1" y1="167.4" x2="3958.5" y2="238.8" xlink:href="#Degradado_sin_nombre_19"/>
  </defs>
  <g class="st10">
    <g id="Capa_2">
      <g id="Final_Isotipo_B" class="st14">
        <g>
          <path class="st4" d="M353.4,167.3c24.3,0,47.3,4.7,68.7,14,21.5,9.3,40.1,22,55.8,37.9,15.8,16,28.3,34.6,37.6,55.8,9.3,21.2,14,44,14,68.4v19.3c0,33.4-8.6,64.2-25.8,92.4-17.2,28.2-40.8,49.9-70.9,65.1l133.9,148.2h-132.4l-116-128.9h-148.2v-98.8h183.3c11,0,21.1-2,30.4-6.1s17.4-9.5,24.3-16.5c6.9-6.9,12.4-15.2,16.5-24.7s6.1-19.8,6.1-30.8v-19.3c0-11-2-21.1-6.1-30.4s-9.6-17.4-16.5-24.3-15-12.4-24.3-16.5-19.4-6.1-30.4-6.1H125.7v402.4H27.6V167.3h325.8Z"/>
          <path class="st13" d="M641.9,668.4V167.3h413.1v98.1h-315v305h315v98.1h-413.1ZM1031.3,369.2v98.1h-247v-98.1h247Z"/>
          <path class="st7" d="M2075.2,228.9c3.8-20.1,13.4-36.9,28.6-50.5,15.3-13.6,33.2-20.9,53.7-21.8,21.5,0,40.7,5.6,57.6,16.8,16.9,11.2,28.7,27.3,35.4,48.3l92.4,294.2,92.4-294.2c7.2-20.5,19.1-36.5,35.8-48s35.8-17.2,57.3-17.2c21,1,39.1,8.2,54.4,21.8,15.3,13.6,24.8,30.4,28.6,50.5l85.2,439.6h-99.5l-79.5-380.9-104.5,330.8c-5.3,15.3-14.2,27.5-26.8,36.5-12.7,9.1-26.8,13.6-42.6,13.6h-1.4c-15.8,0-30-4.5-42.6-13.6-12.7-9.1-21.4-21.2-26.1-36.5l-104.5-330.8-79.5,380.9h-99.5l85.2-439.6h0Z"/>
          <path class="st1" d="M2778.2,668.4V167.3h413.1v98.1h-315v305h315v98.1h-413.1ZM3167.7,369.2v98.1h-247v-98.1h247Z"/>
          <path class="st8" d="M3389.6,668.3v-402.2h182.6c16.7,0,32.6,3.2,47.6,9.7,15,6.5,28,15.3,39,26.5,11,11.2,19.7,24.2,26.1,39,6.4,14.8,9.7,30.8,9.7,48v58c0,17.2-3.2,33.2-9.7,48-6.4,14.8-15.2,27.8-26.1,39-11,11.2-24,20.1-39,26.5s-30.9,9.7-47.6,9.7h-138.6v98.1h138.6c30.5,0,59.2-5.8,85.9-17.5s50.1-27.6,70.2-47.6c20.1-20,35.9-43.4,47.6-70.2,11.7-26.7,17.5-55.4,17.5-85.9v-58c0-30.5-5.9-59.3-17.5-86.3-11.7-27-27.6-50.5-47.6-70.5-20-20.1-43.4-35.9-70.2-47.6-26.7-11.7-55.4-17.5-85.9-17.5h-280.7v501.1h98.1v-.3Z"/>
          <g>
            <polygon class="st9" points="1356.8 321.1 1221.8 167.3 1110.8 167.3 1301.2 383.7 1356.8 321.1"/>
            <polygon class="st11" points="1331.3 417.9 1110.8 668.4 1221.8 668.4 1386.4 480.9 1442.3 417.9 1662.1 167.3 1551.1 167.3 1386.4 354.9 1331.3 417.9"/>
            <polygon class="st5" points="1416.3 514.9 1551.1 668.4 1662.1 668.4 1472.2 451.9 1416.3 514.9"/>
          </g>
          <path class="st3" d="M4411,527.5l-45.4.2-39.8,39.8h191.6l49.4,100.9h110.3l-229.8-467.5c-6.7-13.8-16.6-24.7-29.7-32.6-13.1-7.9-27.3-11.8-42.6-11.8s-28.5,3.8-41.2,11.5c-12.7,7.6-22.3,18.1-29,31.5l-229.8,468.9h110.3l48.7-100.9h47.4l55.8-55.4,45.4-.2,42.1-42.4h-142.7l93.8-191.9,93.8,191.9-58.4,58.1h-.2Z"/>
          <polygon class="st0" points="3941 570.4 3887.2 624.3 3887.2 668.4 3985.2 668.4 3985.2 570.2 3941 570.4"/>
          <polygon class="st15" points="3914.9 281.5 3887.2 309.4 3887.2 579.9 3912.4 554.8 3957.8 554.6 3985.2 527 3985.2 256.5 3960.3 281.3 3914.9 281.5"/>
          <polygon class="st12" points="3931.7 265.6 3985.2 212.1 3985.2 167.3 3887.2 167.3 3887.2 265.8 3931.7 265.6"/>
        </g>
      </g>
      <g id="Final_Isotipo_B1" data-name="Final_Isotipo_B">
        <g>
          <path class="st6" d="M333.4,147.3c24.3,0,47.3,4.7,68.7,14,21.5,9.3,40.1,22,55.8,37.9,15.8,16,28.3,34.6,37.6,55.8,9.3,21.2,14,44,14,68.4v19.3c0,33.4-8.6,64.2-25.8,92.4-17.2,28.2-40.8,49.9-70.9,65.1l133.9,148.2h-132.4l-116-128.9h-148.2v-98.8h183.3c11,0,21.1-2,30.4-6.1s17.4-9.5,24.3-16.5c6.9-6.9,12.4-15.2,16.5-24.7s6.1-19.8,6.1-30.8v-19.3c0-11-2-21.1-6.1-30.4s-9.6-17.4-16.5-24.3-15-12.4-24.3-16.5-19.4-6.1-30.4-6.1H105.7v402.4H7.6V147.3h325.8Z"/>
          <path class="st6" d="M621.9,648.4V147.3h413.1v98.1h-315v305h315v98.1h-413.1ZM1011.3,349.2v98.1h-247v-98.1h247Z"/>
          <path class="st6" d="M2055.2,208.9c3.8-20.1,13.4-36.9,28.6-50.5,15.3-13.6,33.2-20.9,53.7-21.8,21.5,0,40.7,5.6,57.6,16.8,16.9,11.2,28.7,27.3,35.4,48.3l92.4,294.2,92.4-294.2c7.2-20.5,19.1-36.5,35.8-48s35.8-17.2,57.3-17.2c21,1,39.1,8.2,54.4,21.8,15.3,13.6,24.8,30.4,28.6,50.5l85.2,439.6h-99.5l-79.5-380.9-104.5,330.8c-5.3,15.3-14.2,27.5-26.8,36.5-12.7,9.1-26.8,13.6-42.6,13.6h-1.4c-15.8,0-30-4.5-42.6-13.6-12.7-9.1-21.4-21.2-26.1-36.5l-104.5-330.8-79.5,380.9h-99.5l85.2-439.6h0Z"/>
          <path class="st6" d="M2758.2,648.4V147.3h413.1v98.1h-315v305h315v98.1h-413.1ZM3147.7,349.2v98.1h-247v-98.1h247Z"/>
          <path class="st6" d="M3369.6,648.3V246.1h182.6c16.7,0,32.6,3.2,47.6,9.7,15,6.5,28,15.3,39,26.5,11,11.2,19.7,24.2,26.1,39,6.4,14.8,9.7,30.8,9.7,48v58c0,17.2-3.2,33.2-9.7,48-6.4,14.8-15.2,27.8-26.1,39-11,11.2-24,20.1-39,26.5s-30.9,9.7-47.6,9.7h-138.6v98.1h138.6c30.5,0,59.2-5.8,85.9-17.5s50.1-27.6,70.2-47.6c20.1-20,35.9-43.4,47.6-70.2,11.7-26.7,17.5-55.4,17.5-85.9v-58c0-30.5-5.9-59.3-17.5-86.3-11.7-27-27.6-50.5-47.6-70.5-20-20.1-43.4-35.9-70.2-47.6-26.7-11.7-55.4-17.5-85.9-17.5h-280.7v501.1h98.1v-.3Z"/>
          <g>
            <polygon class="st6" points="1336.8 301.1 1201.8 147.3 1090.8 147.3 1281.2 363.7 1336.8 301.1"/>
            <polygon class="st6" points="1311.3 397.9 1090.8 648.4 1201.8 648.4 1366.4 460.9 1422.3 397.9 1642.1 147.3 1531.1 147.3 1366.4 334.9 1311.3 397.9"/>
            <polygon class="st6" points="1396.3 494.9 1531.1 648.4 1642.1 648.4 1452.2 431.9 1396.3 494.9"/>
          </g>
          <path class="st2" d="M4391,507.5l-45.4.2-39.8,39.8h191.6l49.4,100.9h110.3l-229.8-467.5c-6.7-13.8-16.6-24.7-29.7-32.6-13.1-7.9-27.3-11.8-42.6-11.8s-28.5,3.8-41.2,11.5c-12.7,7.6-22.3,18.1-29,31.5l-229.8,468.9h110.3l48.7-100.9h47.4l55.8-55.4,45.4-.2,42.1-42.4h-142.7l93.8-191.9,93.8,191.9-58.4,58.1h-.2Z"/>
          <polygon class="st2" points="3921 550.4 3867.2 604.3 3867.2 648.4 3965.2 648.4 3965.2 550.2 3921 550.4"/>
          <polygon class="st2" points="3894.9 261.5 3867.2 289.4 3867.2 559.9 3892.4 534.8 3937.8 534.6 3965.2 507 3965.2 236.5 3940.3 261.3 3894.9 261.5"/>
          <polygon class="st2" points="3911.7 245.6 3965.2 192.1 3965.2 147.3 3867.2 147.3 3867.2 245.8 3911.7 245.6"/>
        </g>
      </g>
    </g>
  </g>
</svg>